<svg width="70" height="69" viewBox="0 0 70 69" fill="none" xmlns="http://www.w3.org/2000/svg">
<path fill-rule="evenodd" clip-rule="evenodd" d="M15.1355 9.89151C18.1477 8.53782 21.5438 8.25938 24.7415 9.10394C26.2974 9.5149 27.2208 11.0914 26.8039 12.6251C26.3869 14.1588 24.7876 15.069 23.2317 14.658C21.3422 14.159 19.3354 14.3235 17.5555 15.1234C15.7756 15.9233 14.3335 17.3087 13.4765 19.0421C12.6196 20.7755 12.4012 22.7487 12.8587 24.6234C13.3163 26.4982 14.4214 28.1575 15.9845 29.317C16.8324 29.946 17.2669 30.9793 17.1188 32.0152C16.9708 33.0511 16.2637 33.9259 15.2724 34.2995C13.291 35.0464 11.4707 36.1999 9.94191 37.7069C9.42685 38.2146 8.9526 38.7547 8.52114 39.3225C7.62215 40.5056 7.68076 41.4967 8.15388 42.3842C8.71255 43.4321 9.99624 44.5186 11.812 45.0816C13.3486 45.5581 14.2024 47.1722 13.7191 48.6868C13.2357 50.2015 11.5982 51.0431 10.0616 50.5666C7.08135 49.6425 4.40165 47.7067 2.99011 45.0589C1.49303 42.2507 1.57462 38.8728 3.85231 35.8754C4.44916 35.0899 5.10507 34.3429 5.81712 33.641C6.91498 32.5588 8.12158 31.6084 9.41156 30.8002C8.37325 29.3539 7.61393 27.7165 7.18726 25.9685C6.41287 22.7959 6.78248 19.4565 8.23271 16.5232C9.68293 13.5898 12.1234 11.2452 15.1355 9.89151ZM52.4435 15.1234C50.6636 14.3235 48.6568 14.159 46.7673 14.658C45.2113 15.069 43.612 14.1588 43.1951 12.6251C42.7782 11.0914 43.7015 9.5149 45.2575 9.10394C48.4551 8.25938 51.8512 8.53782 54.8634 9.89151C57.8755 11.2452 60.316 13.5898 61.7662 16.5232C63.2165 19.4565 63.5861 22.7959 62.8117 25.9685C62.385 27.7165 61.6257 29.3539 60.5874 30.8002C61.8774 31.6084 63.084 32.5588 64.1818 33.641C64.8939 34.3429 65.5498 35.0899 66.1466 35.8754C68.4243 38.8728 68.5059 42.2507 67.0088 45.0589C65.5973 47.7067 62.9176 49.6425 59.9373 50.5666C58.4007 51.0431 56.7632 50.2015 56.2799 48.6868C55.7965 47.1722 56.6503 45.5581 58.1869 45.0816C60.0027 44.5186 61.2864 43.4321 61.8451 42.3842C62.3182 41.4967 62.3768 40.5056 61.4778 39.3225C61.0463 38.7547 60.5721 38.2146 60.057 37.7069C58.5282 36.1999 56.708 35.0464 54.7265 34.2995C53.7353 33.9259 53.0281 33.0511 52.8801 32.0152C52.7321 30.9793 53.1665 29.946 54.0145 29.317C55.5775 28.1575 56.6826 26.4982 57.1402 24.6234C57.5978 22.7487 57.3794 20.7755 56.5224 19.0421C55.6655 17.3087 54.2234 15.9233 52.4435 15.1234ZM34.9998 20.125C30.3463 20.125 26.5739 23.8435 26.5739 28.4306C26.5739 33.0176 30.3464 36.7363 34.9999 36.7363C39.6533 36.7363 43.4258 33.0177 43.4258 28.4306C43.4258 23.8435 39.6534 20.125 34.9998 20.125ZM44.4598 38.9478C47.4038 36.3729 49.2591 32.6153 49.2591 28.4306C49.2591 20.6679 42.875 14.375 34.9998 14.375C27.1247 14.375 20.7406 20.6679 20.7406 28.4306C20.7406 32.6153 22.5959 36.373 25.54 38.9479C23.5485 39.9344 21.7104 41.2352 20.1048 42.8179C19.3928 43.5197 18.7369 44.2668 18.14 45.0523C16.8024 46.8126 16.1725 48.7746 16.2834 50.7546C16.3926 52.7041 17.2061 54.4495 18.3692 55.8587C20.6579 58.6316 24.4954 60.3752 28.5184 60.3752H41.4814C45.5044 60.3752 49.342 58.6316 51.6306 55.8587C52.7937 54.4496 53.6072 52.7041 53.7164 50.7546C53.8274 48.7746 53.1975 46.8126 51.8598 45.0523C51.2629 44.2668 50.607 43.5197 49.895 42.8179C48.2894 41.2352 46.4513 39.9344 44.4598 38.9478ZM34.9999 42.4863C30.9603 42.4863 27.0861 44.0681 24.2296 46.8837C23.7146 47.3914 23.2403 47.9316 22.8089 48.4994C22.2151 49.2808 22.0794 49.9301 22.1078 50.4375C22.138 50.9754 22.3687 51.5933 22.8941 52.2299C23.9823 53.5483 26.0982 54.6252 28.5184 54.6252H41.4814C43.9017 54.6252 46.0175 53.5483 47.1057 52.2299C47.6311 51.5933 47.8618 50.9754 47.892 50.4376C47.9204 49.9302 47.7847 49.2808 47.1909 48.4994C46.7595 47.9316 46.2852 47.3914 45.7702 46.8837C42.9137 44.0681 39.0395 42.4863 34.9999 42.4863Z" fill="black"/>
</svg>
