<svg width="62" height="62" viewBox="0 0 62 62" fill="none" xmlns="http://www.w3.org/2000/svg">
<path d="M31.0001 0C22.5809 0 21.5252 0.0357166 18.2187 0.18652C14.9191 0.337047 12.6657 0.861167 10.6938 1.62737C8.65524 2.41959 6.92644 3.47965 5.20309 5.203C3.47965 6.92635 2.41959 8.65533 1.62746 10.6939C0.861075 12.6657 0.337139 14.9191 0.186428 18.2187C0.0356243 21.5252 0 22.5809 0 31.0001C0 39.4191 0.0356243 40.4748 0.186428 43.7813C0.337139 47.0809 0.861075 49.3343 1.62746 51.3061C2.41969 53.3447 3.47974 55.0735 5.20309 56.797C6.92653 58.5203 8.65524 59.5804 10.6938 60.3726C12.6657 61.1388 14.9191 61.6629 18.2187 61.8135C21.5252 61.9643 22.5809 62 31.0001 62C39.4191 62 40.4748 61.9643 43.7813 61.8135C47.0809 61.663 49.3343 61.1388 51.3061 60.3726C53.3447 59.5804 55.0735 58.5203 56.797 56.797C58.5203 55.0735 59.5804 53.3447 60.3726 51.3061C61.1388 49.3343 61.663 47.0809 61.8135 43.7813C61.9643 40.4748 62 39.4191 62 31.0001C62 22.5809 61.9643 21.5252 61.8135 18.2187C61.663 14.9191 61.1388 12.6657 60.3726 10.6939C59.5804 8.65533 58.5203 6.92635 56.797 5.203C55.0735 3.47965 53.3447 2.41959 51.3061 1.62737C49.3343 0.861167 47.0809 0.337047 43.7813 0.18652C40.4748 0.0357166 39.4191 0 31.0001 0ZM31.0001 5.58554C39.2773 5.58554 40.2578 5.6172 43.5267 5.76634C46.5492 5.90413 48.1906 6.40915 49.2829 6.83369C50.73 7.39611 51.7626 8.0678 52.8473 9.15259C53.9322 10.2374 54.6039 11.2701 55.1663 12.7171C55.5908 13.8094 56.0959 15.4509 56.2337 18.4733C56.3828 21.7422 56.4145 22.7227 56.4145 31C56.4145 39.2773 56.3828 40.2578 56.2337 43.5267C56.0959 46.5492 55.5908 48.1906 55.1663 49.2829C54.6039 50.73 53.9322 51.7626 52.8473 52.8473C51.7626 53.9322 50.7299 54.6039 49.2829 55.1663C48.1906 55.5908 46.5491 56.0959 43.5267 56.2337C40.2584 56.3828 39.278 56.4145 31 56.4145C22.722 56.4145 21.7418 56.3828 18.4733 56.2336C15.4508 56.0959 13.8094 55.5908 12.7171 55.1663C11.27 54.6039 10.2374 53.9322 9.15268 52.8473C8.0679 51.7626 7.39611 50.7299 6.83369 49.2829C6.40915 48.1906 5.90423 46.5491 5.76634 43.5267C5.6172 40.2578 5.58554 39.2773 5.58554 31C5.58554 22.7227 5.6172 21.7422 5.76634 18.4733C5.90423 15.4508 6.40915 13.8094 6.83369 12.7171C7.39611 11.27 8.0679 10.2374 9.15259 9.15268C10.2374 8.0678 11.2701 7.39611 12.7171 6.83369C13.8094 6.40915 15.4509 5.90413 18.4733 5.76634C21.7422 5.6172 22.7227 5.58554 31 5.58554" fill="#100F0D"/>
<path d="M31.0001 41.3335C25.293 41.3335 20.6666 36.7071 20.6666 31.0002C20.6666 25.2931 25.293 20.6667 31.0001 20.6667C36.707 20.6667 41.3333 25.2931 41.3333 31.0002C41.3333 36.7071 36.707 41.3335 31.0001 41.3335ZM31.0001 15.0812C22.2081 15.0812 15.0811 22.2083 15.0811 31.0002C15.0811 39.7919 22.2081 46.919 31.0001 46.919C39.7918 46.919 46.9189 39.7919 46.9189 31.0002C46.9189 22.2083 39.7918 15.0812 31.0001 15.0812ZM51.2679 14.4522C51.2679 16.5068 49.6023 18.1722 47.5478 18.1722C45.4934 18.1722 43.8279 16.5068 43.8279 14.4522C43.8279 12.3978 45.4934 10.7322 47.5478 10.7322C49.6023 10.7322 51.2679 12.3978 51.2679 14.4522Z" fill="#100F0D"/>
</svg>
