<svg width="48" height="68" viewBox="0 0 48 68" fill="none" xmlns="http://www.w3.org/2000/svg">
<path fill-rule="evenodd" clip-rule="evenodd" d="M12.0076 3.18504C19.4362 -1.13127 28.5671 -1.05583 35.9259 3.38266C43.2124 7.91156 47.641 15.9943 47.5997 24.6891C47.4301 33.3268 42.6815 41.4463 36.7456 47.723C33.3196 51.3621 29.4871 54.58 25.3262 57.3109C24.8977 57.5587 24.4283 57.7246 23.9412 57.8004C23.4724 57.7804 23.0158 57.6419 22.6127 57.3973C16.2603 53.2939 10.6874 48.056 6.16196 41.9357C2.37521 36.8269 0.223839 30.6546 3.95627e-06 24.2572C-0.00491588 15.5457 4.57903 7.50136 12.0076 3.18504ZM16.3014 27.8629C17.551 30.9435 20.5005 32.9529 23.7728 32.9529C25.9165 32.9683 27.9772 32.1096 29.4957 30.5682C31.0142 29.0268 31.8644 26.9308 31.8568 24.7471C31.8683 21.4139 29.9059 18.4024 26.8861 17.1188C23.8662 15.8351 20.3845 16.5325 18.0666 18.8853C15.7487 21.2381 15.0519 24.7822 16.3014 27.8629Z" fill="black"/>
<ellipse opacity="0.4" cx="23.7984" cy="64.6" rx="17.0001" ry="3.40002" fill="black"/>
</svg>
